# xmcd
#
# Track frame offsets:
# 183
# 13825
# 26693
# 38180
# 47810
# 56088
# 69158
# 79950
# 90480
# 100658
# 112773
# 122383
# 134845
# 148420
# 158595
# 168775
# 179855
# 191690
# 207253
# 217833
# 227953
#
# Disc length: 3323 seconds
#
#
# Revision: 0
# Processed by: cddbd v1.5.1PL2 Copyright (c) Steve Scherf et al.
# Submitted via: FreeRIP 2.944 
#
DISCID=270cf915
DTITLE=Various Artist - Baby Let's Burn: Blues From Baton Rouge
DYEAR=1992
DGENRE=Blues
TTITLE0=Jimmy Anderson - I'm a King Bee
TTITLE1=Jimmy Anderson - Half Past Midnight
TTITLE2=Jimmy Anderson - In the Dark In The Park
TTITLE3=Jimmy Anderson - Bady Let's Burn
TTITLE4=Jimmy Anderson - When I Play My Harp
TTITLE5=Jimmy Anderson - Angel Please
TTITLE6=Jimmy Anderson - I Wanna Boogie
TTITLE7=Jimmy Dotson - Oh Baby
TTITLE8=Jimmy Dotson - I Need Your Love
TTITLE9=Jimmy Dotson - I Wanna Know
TTITLE10=Jimmy Dotson - Looking For My Baby
TTITLE11=Silas Hogan - Tell Me Babe
TTITLE12=Silas Hogan - Sittin' Here Wonderin'
TTITLE13=Blues Boy Dorsey - Walkin' Out My Door
TTITLE14=Blues Boy Dorsey - Don't Do That To Me
TTITLE15=Blues Boy Dorsey - Come Here To Me Baby
TTITLE16=Slim Harpo - One More Day
TTITLE17=Lightning Slim - Miss Sandy Brown/Tell Me Baby/Walk The Streets At Night
TTITLE18=Boogie Jake - I Don't Know Why
TTITLE19=Sylvester Buckley - I Can Be On My Way
TTITLE20=Henry Gray - Cold Chills
EXTD=
EXTT0=
EXTT1=
EXTT2=
EXTT3=
EXTT4=
EXTT5=
EXTT6=
EXTT7=
EXTT8=
EXTT9=
EXTT10=
EXTT11=
EXTT12=
EXTT13=
EXTT14=
EXTT15=
EXTT16=
EXTT17=
EXTT18=
EXTT19=
EXTT20=
PLAYORDER=
